<?xml version="1.0" encoding="utf-8"?>
<!-- Generator: Adobe Illustrator 22.0.1, SVG Export Plug-In . SVG Version: 6.00 Build 0)  -->
<svg version="1.1" id="Layer_1" xmlns="http://www.w3.org/2000/svg" xmlns:xlink="http://www.w3.org/1999/xlink" x="0px" y="0px"
	 viewBox="0 0 100.8 33.6" style="enable-background:new 0 0 100.8 33.6;" xml:space="preserve">
<style type="text/css">
	.st0{fill:#FFFFFF;}
</style>
<g>
	<g>
		<path d="M77.9,32.5c-6.8-0.2-11-5.6-11-11.1V1.1H71L71.2,21c0,7.3,6.7,7.7,7,7.7c4.1,0,7.3-3.2,7.2-7.5c-0.1-3.9-3.1-7.1-7.1-7.1
			c-2.2,0-3.6,0.2-5.2,1.6l-0.6,0.4v-4.2l1.6-0.7c1.8-0.7,3-0.9,4.9-0.9c5.4,0,10.9,5.3,10.6,11.4C89.3,27.7,84.6,32.7,77.9,32.5z"
			/>
		<path d="M94.1,5.8c0.2-3.3,5.1-3.2,5,0C99.1,9.3,93.9,8.8,94.1,5.8z M94.7,32.2V10.6H99v21.6H94.7z"/>
	</g>
	<g>
		<g>
			<path d="M14.7,32c-7.9,0-14-5-13.8-11.2c0.2-6.3,6.4-11.1,14.2-11s13.8,5,13.7,11.3C28.7,27.5,22.7,32.1,14.7,32z M22.4,21.1
				c0.1-3.4-3.3-6.1-7.5-6.1s-7.6,2.7-7.5,6.1c0,3.3,3.1,5.8,7.3,5.9C19,27,22.3,24.5,22.4,21.1z"/>
		</g>
		<path class="st0" d="M24.8,21c0,4.5-4.4,8.1-9.8,8.1S5.2,25.5,5.2,21s4.4-8.1,9.8-8.1S24.8,16.6,24.8,21z"/>
	</g>
</g>
<path d="M36.9,10.5v2.7l0,0c0.5-1,1.6-1.9,3.2-2.6c0.8-0.4,1.7-0.6,2.7-0.6c2.8,0,4.9,1.3,6.3,3.8c1.5-2.5,3.7-3.8,6.7-3.8
	c4.9,0,7.3,2.9,7.3,8.8v13h-4.2V19.6c0-1.9-0.2-3.3-0.7-4.1c-0.7-1.3-1.8-1.9-3.5-1.9c-3.1,0-4.6,2.2-4.6,6.7v11.5h-4.2V20.4
	c0-2-0.2-3.6-0.7-4.6c-0.7-1.5-1.9-2.3-3.7-2.3c-3.1,0-4.6,2.4-4.6,7.1v11.1h-4.2V10.5H36.9z"/>
</svg>
