<?xml version="1.0" encoding="utf-8"?>
<!-- Generator: Adobe Illustrator 22.0.1, SVG Export Plug-In . SVG Version: 6.00 Build 0)  -->
<svg version="1.1" id="Layer_1" xmlns="http://www.w3.org/2000/svg" xmlns:xlink="http://www.w3.org/1999/xlink" x="0px" y="0px"
	 viewBox="0 0 271 215" style="enable-background:new 0 0 271 215;" xml:space="preserve">
<style type="text/css">
	.st0{fill-rule:evenodd;clip-rule:evenodd;}
</style>
<g>
	<path class="st0" d="M137.4,207.1c-32-0.4-60.8-7.7-85.9-26.6C3.7,144.4,2.6,80.7,49.3,42.9c26-21.1,56.4-29.3,89.3-29
		c28.1,0.3,54.5,7,77.8,23.2c22.6,15.7,37.8,36.5,40.7,64.6c3.3,31.6-8.6,57.1-32.7,76.9C198.8,199.5,168.6,206.6,137.4,207.1z
		 M140,40.8c-21.4,0.1-39.4,4.8-55.6,15.3c-40.4,26.1-43.4,76.6-6.5,106c35.1,27.9,90.1,26.4,123.6-3.4c29-25.9,29.2-68.1,0.4-94.1
		C183.7,48.2,162,41.2,140,40.8z"/>
</g>
</svg>
