<?xml version="1.0" encoding="utf-8"?>
<!-- Generator: Adobe Illustrator 22.0.1, SVG Export Plug-In . SVG Version: 6.00 Build 0)  -->
<svg version="1.1" id="Layer_1" xmlns="http://www.w3.org/2000/svg" xmlns:xlink="http://www.w3.org/1999/xlink" x="0px" y="0px"
	 viewBox="0 0 30.9 24.3" style="enable-background:new 0 0 30.9 24.3;" xml:space="preserve">
<style type="text/css">
	.st0{fill-rule:evenodd;clip-rule:evenodd;}
</style>
<g>
	<path class="st0" d="M15.8,23.3c-3.7-0.1-7-0.9-9.9-3.1C0.4,16.1,0.3,8.7,5.7,4.3C8.7,1.9,12.2,0.9,16,1c3.2,0,6.3,0.8,9,2.7
		c2.6,1.8,4.4,4.2,4.7,7.5c0.4,3.6-1,6.6-3.8,8.9C22.9,22.4,19.4,23.2,15.8,23.3z M16.1,4.1c-2.5,0-4.5,0.6-6.4,1.8
		c-4.7,3-5,8.9-0.7,12.2c4.1,3.2,10.4,3.1,14.3-0.4c3.4-3,3.4-7.9,0-10.9C21.2,4.9,18.7,4.1,16.1,4.1z"/>
</g>
</svg>
