<?xml version="1.0" encoding="utf-8"?>
<!-- Generator: Adobe Illustrator 22.0.1, SVG Export Plug-In . SVG Version: 6.00 Build 0)  -->
<svg version="1.1" id="Layer_1" xmlns="http://www.w3.org/2000/svg" xmlns:xlink="http://www.w3.org/1999/xlink" x="0px" y="0px"
	 viewBox="0 0 774.2 205.1" style="enable-background:new 0 0 774.2 205.1;" xml:space="preserve">
<style type="text/css">
	.st0{fill:#FFFFFF;}
</style>
<g>
	<path class="st0" d="M463,192.4c-8.6,0-16.8,0-25.5,0c0-1.5,0-2.8,0-4.2c-0.1-25,0.2-49.9-0.3-75c-0.1-6.4-2-13-4-19.3
		c-2-5.8-7-9.1-12.9-10.7c-17.1-4.6-30.8,4-34.4,22.1c-1,5-1.5,10.1-1.5,15.2c-0.1,22.5-0.1,44.8-0.1,67.3c0,1.4,0,2.8,0,4.4
		c-8.6,0-17.1,0-25.8,0c0-1.5,0-2.9,0-4.3c0-22.5,0.3-45.1-0.1-67.7c-0.1-7.3-1.3-14.6-3.2-21.6c-2.9-10.5-10.2-15.7-20.9-16.4
		c-10.8-0.7-19.4,3.1-24.5,13c-4.3,8.4-5.4,17.5-5.5,26.7c-0.1,22.1,0,44.2,0,66.3c0,1.3,0,2.5,0,4c-8.5,0-16.7,0-25.2,0
		c0-42.8,0-85.4,0-128.3c8.3,0,16.5,0,25.1,0c0,5,0,10,0,15.6c10.3-12.5,22.4-19.9,38.4-19.3c16.2,0.6,27.6,8.9,35.9,22.7
		c4.3-6.8,9.2-12.6,16-16.3c15.7-8.6,31.8-8.9,47.8-1.2C453.4,71,458.6,81.3,461,93c1.3,6,2,12.2,2.1,18.3
		c0.2,26.3,0.1,52.5,0.1,78.8C463.1,190.7,463,191.4,463,192.4z"/>
	<path class="st0" d="M486.5,6.7c8.7,0,16.8,0,25.2,0c0.1,1.3,0.1,2.4,0.1,3.6c0.1,38.2,0.1,76.4,0.3,114.7c0,8.4,0.9,16.7,4.5,24.4
		c8.4,17.9,29.4,28,48.5,23.5c19.8-4.7,33.3-22.5,32.8-43.3c-0.6-21.8-14.4-39.5-34.7-43c-14.2-2.4-28.1-1.2-39.9,8.6
		c-0.9,0.7-1.9,1.3-3.5,2.4c0-3.8,0-6.9,0-10c0-4.4-0.1-8.9,0.1-13.3c0.1-1.1,0.9-2.7,1.8-3.1c13.7-6.3,28-10,43.2-8.2
		c19.5,2.3,34.6,12.3,46,27.9c30.1,41,5.3,98.6-45.3,105.6c-38.3,5.3-71.6-18.6-78.3-56.5c-0.5-2.9-0.7-5.8-0.7-8.6
		c-0.1-40.3,0-80.6,0-120.9C486.5,9.3,486.5,8.1,486.5,6.7z"/>
	<path class="st0" d="M171.1,194.4c-22.3-0.3-42.4-5.4-59.9-18.6c-33.4-25.2-34.1-69.6-1.6-96c18.1-14.7,39.3-20.4,62.3-20.2
		c19.6,0.2,38,4.9,54.3,16.2c15.8,11,26.4,25.5,28.4,45.1c2.3,22-6,39.8-22.8,53.6C214,189.1,192.9,194,171.1,194.4z M173,78.4
		c-14.9,0.1-27.5,3.3-38.8,10.7c-28.2,18.2-30.3,53.4-4.5,73.9c24.5,19.5,62.8,18.4,86.2-2.4c20.2-18.1,20.4-47.5,0.3-65.6
		C203.4,83.5,188.3,78.7,173,78.4z"/>
	<path class="st0" d="M654.9,64.4c8.7,0,17.2,0,25.9,0c0,43.5,0,87,0,130.7c-8.5,0-17.1,0-25.9,0
		C654.9,151.7,654.9,108.2,654.9,64.4z"/>
	<path class="st0" d="M666.6,50.1c-9.1-0.1-15.3-5.6-15.3-13.9c0-9.3,6.4-15.6,15.8-15.6c8.9,0.1,14.9,5.9,14.9,14.5
		C682,44.1,675.9,50.1,666.6,50.1z"/>
</g>
</svg>
